<svg width="850" height="187" viewBox="0 0 850 187" fill="none" xmlns="http://www.w3.org/2000/svg">
<path d="M375.325 52.3675H374.175C367.27 40.4013 355.074 32.3475 338.505 32.3475C306.519 32.3475 286.038 55.1295 286.038 93.3286C286.038 131.528 306.517 154.541 338.505 154.541C355.074 154.541 367.27 146.487 374.175 134.521H375.325V185.381H408.232V35.3403H375.325V52.3675ZM347.482 127.386C332.063 127.386 319.868 117.492 319.868 93.3286C319.868 69.3963 332.063 59.2709 347.711 59.2709C361.978 59.2709 376.016 69.8561 376.016 93.3286C376.016 117.03 361.978 127.386 347.48 127.386H347.482ZM211.669 32.3475C172.779 32.3475 151.609 56.5106 151.609 93.5594C151.609 130.377 172.089 154.541 214.202 154.541C245.497 154.541 262.757 139.812 269.43 121.633L239.054 113.579C234.681 124.624 226.858 130.148 213.971 130.148C195.33 130.148 187.046 119.563 184.745 103.454H270.12C270.811 99.7724 271.041 97.0103 271.041 93.3286C271.041 53.9792 250.1 32.3475 211.67 32.3475H211.669ZM184.974 81.3625C187.277 66.1744 195.33 56.5106 211.669 56.5106C229.848 56.5106 236.291 68.017 238.132 81.3625H184.974ZM696.111 151.319H729.018V1.21136H696.111V151.319ZM806.903 82.5145C788.264 78.6021 776.067 76.5305 776.067 68.246C776.067 61.8023 782.511 56.7413 794.246 56.7413C804.371 56.7413 813.806 60.8827 816.107 72.1584L844.871 62.4928C840.499 42.0131 819.329 32.3475 794.475 32.3475C765.94 32.3475 744.539 44.5444 744.539 68.7075C744.539 93.0996 766.4 100.003 785.04 103.915C803.912 107.828 817.026 110.128 817.026 118.413C817.026 126.236 809.432 129.918 797.236 129.918C783.659 129.918 773.763 122.785 770.541 111.508L741.317 121.404C747.299 144.877 771.232 154.541 797.466 154.541C823.93 154.541 848.551 143.496 848.551 117.951C848.551 93.0996 825.771 86.4251 806.899 82.5145H806.903ZM507.645 96.7795C507.645 115.88 498.901 128.537 482.332 128.537C465.993 128.537 459.78 117.492 459.78 99.0818V35.3386H427.104V107.136C427.104 140.503 446.202 154.541 468.065 154.541C484.863 154.541 499.591 145.565 506.495 133.83H507.645V151.319H540.552V35.3386H507.645V96.7795ZM666.658 116.111V73.0796C666.658 39.9432 639.275 32.3475 616.031 32.3475C584.274 32.3475 563.794 48.4568 558.503 67.7862L587.267 77.9116C589.569 65.4839 600.845 56.5106 616.493 56.5106C629.38 56.5106 635.822 61.1135 635.822 66.6359C635.822 71.2388 631.45 73.5394 626.618 74.9204L594.172 85.9654C579.674 90.5683 559.653 98.8528 559.653 122.783C559.653 143.034 576.451 154.541 598.542 154.541C613.96 154.541 632.369 148.787 639.733 134.521H640.652V135.442C640.883 148.329 649.856 151.32 659.982 151.32H679.082L684.145 128.079H675.171C666.425 127.849 666.656 123.706 666.656 116.112L666.658 116.111ZM637.201 103.914C637.201 124.164 617.872 129.916 607.287 129.916C599.002 129.916 592.329 126.234 592.329 119.1C592.329 111.737 598.542 107.824 607.287 104.372L629.838 96.3181C633.751 94.7063 636.051 93.7867 637.201 92.8655V103.91V103.914Z" fill="#4D0B4F"></path>
<path d="M57.0076 32.3187C25.6627 32.3187 0.250977 39.7481 0.250977 48.9132C0.250977 49.0568 0.250977 49.0568 0.250977 48.9132V63.1341C0.250977 72.2992 25.6627 79.7286 57.0076 79.7286C88.3524 79.7286 113.768 72.2992 113.768 63.1341V48.9132C113.768 39.7481 88.3558 32.3187 57.0076 32.3187ZM57.0076 107.088C25.6627 107.088 0.250977 114.518 0.250977 123.683V137.904C0.250977 147.069 25.6627 154.498 57.0076 154.498C88.3524 154.498 113.768 147.069 113.768 137.904V123.683C113.768 114.518 88.3558 107.088 57.0076 107.088Z" fill="#E242E2"></path>
</svg>